<svg id="Layer_8" data-name="Layer 8" xmlns="http://www.w3.org/2000/svg" viewBox="0 0 558.68 624.24"><defs><style>.cls-1,.cls-2{fill:#fff;}.cls-1{opacity:0.5;}</style></defs><title>fandb</title><path class="cls-1" d="M818.32,1139.58q29.22-49.78,29.22-99.11a178.67,178.67,0,0,0-14.62-70.78,170.17,170.17,0,0,0-42-58A157.47,157.47,0,0,0,730.18,877c-22.84-6.4-39.82-10.37-78.18-10.37H611.75L589.34,1018.2c44.83-1.05,63-.09,74.74,4.1,25.41,9.05,28.93,31.52,28.93,88.78H591.42l-21.81,100.65h67.86q37,0,52.07,9.59a57.86,57.86,0,0,1,21,21,59.64,59.64,0,0,1,7.31,29.23q0,27.41-17.36,44.75Q682.22,1333.68,653,1335H460.73l21.77,155.73H682.68q59.82,0,107.32-25.58,47.95-25.57,74.44-71.24,26.94-46.13,26.95-102.3Q891.39,1197.57,818.32,1139.58Z" transform="translate(-332.71 -866.62)"/><path class="cls-2" d="M499.65,1111.08c0-57.26,3.52-79.73,28.93-88.78,14.5-5.16,72.42-4.31,81.22-4.07L639,866.62H555.31q-57.54,0-91.79,9.59a157.46,157.46,0,0,0-60.74,34.71,170.17,170.17,0,0,0-42,58s-28.06,42-28.06,141.81v97.52h0v282.62H515.38L548,1335l-65.33-.22V1211.7h89.62l19.05-100.62H499.65Z" transform="translate(-332.71 -866.62)"/></svg>